<?xml version="1.0" encoding="utf-8"?>
<!-- Generator: Adobe Illustrator 22.1.0, SVG Export Plug-In . SVG Version: 6.00 Build 0)  -->
<svg version="1.1" id="Layer_1" xmlns="http://www.w3.org/2000/svg" xmlns:xlink="http://www.w3.org/1999/xlink" x="0px" y="0px"
	 viewBox="0 0 100 125" style="enable-background:new 0 0 100 125;" xml:space="preserve">
<title>Artboard 1</title>
<path d="M6.1,57c-0.4-0.9-0.3-1.9,0.3-2.7l9-10.8c1-1.2,2.7-1.3,3.9-0.3c0.1,0.1,0.2,0.2,0.3,0.3l9,10.8c0.9,1.1,0.7,2.6-0.3,3.5
	c-0.4,0.4-1,0.6-1.6,0.6h-3.8c0.7,16.8,14.9,29.8,31.7,29c16.8-0.7,29.8-14.9,29-31.7c-0.7-16.8-14.9-29.8-31.7-29
	c-9.6,0.4-18.3,5.3-23.8,13.2c-0.1,0.2-0.3,0.3-0.6,0.3c-0.2,0-0.5-0.1-0.6-0.3l-6-7.2c-0.2-0.3-0.2-0.6,0-0.9
	c6.6-8.5,16.3-14,27-15.4v-4h-4c-2.9,0.3-5.5-1.8-5.8-4.7C37.9,4.9,40,2.3,42.9,2c0.3,0,0.7,0,1,0h18.6c2.9-0.1,5.4,2.1,5.5,5
	s-2.1,5.4-5,5.5c-0.2,0-0.3,0-0.5,0h-4v4c7.2,0.9,14.1,3.8,19.8,8.3l4.5-4.5c2-2.1,5.3-2.3,7.5-0.3s2.3,5.3,0.3,7.5
	c-0.1,0.1-0.2,0.2-0.3,0.3l-4.5,4.5c5.5,7.1,8.4,15.8,8.4,24.8c0.4,22.6-17.7,41.2-40.3,41.6S12.7,81,12.3,58.4h-4
	C7.4,58.4,6.5,57.9,6.1,57z M70.4,40c-1.2-1.2-3-1.3-4.4-0.3L54.3,49c-4.5-0.6-8.7,2.5-9.3,7s2.5,8.7,7,9.3c4.5,0.6,8.7-2.5,9.3-7
	c0.1-0.8,0.1-1.5,0-2.3l9.3-11.6C71.7,43,71.6,41.1,70.4,40L70.4,40z"/>
</svg>
