<?xml version="1.0" encoding="utf-8"?>
<!-- Generator: Adobe Illustrator 23.0.1, SVG Export Plug-In . SVG Version: 6.00 Build 0)  -->
<svg version="1.1" id="Layer_1" xmlns="http://www.w3.org/2000/svg" xmlns:xlink="http://www.w3.org/1999/xlink" x="0px" y="0px"
	 viewBox="0 0 40 40" style="enable-background:new 0 0 40 40;" xml:space="preserve">
<style type="text/css">
	.st0{opacity:0.15;}
</style>
<title>image-gallery copy 4</title>
<desc>Created with Sketch.</desc>
<g id="Page-1" class="st0">
	<g id="image-gallery-copy-4">
		<path id="Shape" d="M6.2,26.8V9.6H3.5C1.6,9.6,0,11.2,0,13.2v23.2c0,1.9,1.6,3.5,3.5,3.5h23.2c1.9,0,3.5-1.6,3.5-3.5v-2.5H13.2
			C9.3,33.9,6.2,30.7,6.2,26.8z"/>
		<path d="M36.5,0.1H13.2c-1.9,0-3.5,1.6-3.5,3.5v23.2c0,1.9,1.6,3.5,3.5,3.5h23.2c1.9,0,3.5-1.6,3.5-3.5V3.6
			C40,1.6,38.4,0.1,36.5,0.1z M30.5,20.4H19.7V10.1h10.8V20.4z"/>
	</g>
</g>
</svg>
