<?xml version="1.0" encoding="utf-8"?>
<!-- Generator: Adobe Illustrator 22.1.0, SVG Export Plug-In . SVG Version: 6.00 Build 0)  -->
<svg version="1.1" id="Layer_1" xmlns="http://www.w3.org/2000/svg" xmlns:xlink="http://www.w3.org/1999/xlink" x="0px" y="0px"
	 viewBox="0 0 52 65" style="enable-background:new 0 0 52 65;" xml:space="preserve">
<g>
	<path d="M26.2,13.4c3.1,0,5.5-3.5,5.5-6.5c0-3-2.5-5.5-5.5-5.5s-5.5,2.5-5.5,5.5C20.7,9.9,23.1,13.4,26.2,13.4z"/>
	<path d="M51,49.4c-0.1-4.2-2.5-7.9-6-9.7c-1.3,1.6-3.2,2.7-5.3,2.7c-1.2,0-2.4-0.4-3.5-1.1c-0.6-0.4-1.2-1-1.8-1.6
		c-3.5,1.9-6,5.6-6,9.9c0,0.5,0.5,1,1,1H50c0,0,0,0,0,0c0.5,0,1-0.5,1-1C51,49.5,51,49.5,51,49.4z"/>
	<path d="M37.3,39.6c0.8,0.5,1.6,0.8,2.4,0.8c3.1,0,5.5-3.5,5.5-6.5c0-3-2.5-5.5-5.5-5.5c-3,0-5.5,2.5-5.5,5.5c0,0.4,0,0.7,0.1,1.1
		C32,33.8,29.5,33.2,27,33v-9.4h9.5c0,0,0,0,0,0c0.6,0,1-0.5,1-1c0-0.1,0-0.2,0-0.2c-0.1-4.2-2.5-7.9-6-9.7
		c-1.3,1.6-3.2,2.7-5.3,2.7c-2.1,0-4-1.1-5.3-2.7c-3.5,1.9-6,5.6-6,9.9c0,0.5,0.4,1,1,1H25V33c-2.5,0.1-5,0.8-7.3,1.9
		c0.1-0.4,0.1-0.7,0.1-1.1c0-3-2.5-5.5-5.5-5.5c-3,0-5.5,2.5-5.5,5.5c0,3,2.4,6.5,5.5,6.5c0.8,0,1.6-0.3,2.4-0.7
		c0.5-0.3,1.1-0.8,1.5-1.3c5.7-4.4,14-4.4,19.7,0C36.3,38.8,36.8,39.2,37.3,39.6z"/>
	<path d="M17.6,39.7c-0.5,0.6-1.2,1.2-1.8,1.6c-1.1,0.7-2.3,1-3.5,1c-2.1,0-4-1.1-5.3-2.7c-3.5,1.9-6,5.6-6,9.9c0,0.5,0.5,1,1,1
		h20.5c0,0,0,0,0,0c0.5,0,1-0.5,1-1c0-0.1,0-0.1,0-0.2C23.5,45.2,21.1,41.5,17.6,39.7z"/>
</g>
</svg>
