<?xml version="1.0" encoding="utf-8"?>
<!-- Generator: Adobe Illustrator 22.1.0, SVG Export Plug-In . SVG Version: 6.00 Build 0)  -->
<svg version="1.1" id="Layer_1" xmlns="http://www.w3.org/2000/svg" xmlns:xlink="http://www.w3.org/1999/xlink" x="0px" y="0px"
	 viewBox="0 0 90 112.5" style="enable-background:new 0 0 90 112.5;" xml:space="preserve">
<style type="text/css">
	.st0{fill:none;}
</style>
<title>Group</title>
<desc>Created with Sketch.</desc>
<g>
	<g>
		<rect class="st0" width="90" height="90"/>
		<path d="M6,78h78c3.3,0,6,2.7,6,6l0,0c0,3.3-2.7,6-6,6H6c-3.3,0-6-2.7-6-6l0,0C0,80.7,2.7,78,6,78z"/>
		<path d="M28.4,37.7c-2.5-2.5-6.5-2.5-9,0c-2.5,2.5-2.5,6.5,0,9L42,69.3c1.7,1.7,4.4,1.7,6,0l22.6-22.6c2.5-2.5,2.5-6.5,0-9
			c-2.5-2.5-6.5-2.5-9,0L51.3,47.9V6.9c0-3.5-2.9-6.4-6.4-6.4c-3.5,0-6.4,2.9-6.4,6.4v40.9L28.4,37.7z"/>
	</g>
</g>
</svg>
