<?xml version="1.0" encoding="utf-8"?>
<!-- Generator: Adobe Illustrator 22.1.0, SVG Export Plug-In . SVG Version: 6.00 Build 0)  -->
<svg version="1.1" id="Layer_1" xmlns="http://www.w3.org/2000/svg" xmlns:xlink="http://www.w3.org/1999/xlink" x="0px" y="0px"
	 viewBox="0 0 96 120" style="enable-background:new 0 0 96 120;" xml:space="preserve">
<path d="M0,82.1c0,0.7,0.1,1.3,0.2,1.9c0.4,1.9,1.3,3.6,2.7,5C4.8,91,7.3,92,9.9,92c5.6,0,10.1-4.4,10.1-9.9V38c0-7.7,6.3-14,14-14
	h52c3.9,0,7.4,1.6,10,4.2V28c0-8.8-7.2-16-16-16H48.2c-1.3-5.2-7.3-12-14-12h-20C6.8,0,0,7.3,0,15.3L0,82.1C0,82.1,0,82.1,0,82.1z"
	/>
<path d="M96,38c0-5.5-4.5-10-10-10H34c-5.5,0-10,4.5-10,10v44.1c0,7-5.2,12.7-11.9,13.7c0.7,0.1,1.3,0.2,2,0.2c0.5,0,0.9,0,1.4-0.1
	c0.2,0,0.3,0.1,0.5,0.1h66c7.7,0,14-6.3,14-14V40L96,38z"/>
</svg>
