<?xml version="1.0" encoding="utf-8"?>
<!-- Generator: Adobe Illustrator 22.1.0, SVG Export Plug-In . SVG Version: 6.00 Build 0)  -->
<svg version="1.1" id="Layer_1" xmlns="http://www.w3.org/2000/svg" xmlns:xlink="http://www.w3.org/1999/xlink" x="0px" y="0px"
	 viewBox="0 0 213 91.2" style="enable-background:new 0 0 213 91.2;" xml:space="preserve">
<g>
	<path d="M37,0c20,0,36,16,36,37c0,20-16,36-36,36C16,73,0,57,0,37C0,16,16,0,37,0z"/>
	<path d="M123,8c16,0,28,13,28,29c0,15-12,28-28,28c-15,0-28-13-28-28C95,21,108,8,123,8z"/>
	<path d="M193,17c11,0,20,9,20,20c0,10-9,19-20,19s-19-9-19-19C174,26,182,17,193,17z"/>
</g>
</svg>
