<?xml version="1.0" encoding="utf-8"?>
<!-- Generator: Adobe Illustrator 22.1.0, SVG Export Plug-In . SVG Version: 6.00 Build 0)  -->
<svg version="1.1" id="Layer_1" xmlns="http://www.w3.org/2000/svg" xmlns:xlink="http://www.w3.org/1999/xlink" x="0px" y="0px"
	 viewBox="0 0 250 93.8" style="enable-background:new 0 0 250 93.8;" xml:space="preserve">
<g>
	<path d="M0,38C0,17,17,0,38,0s37,17,37,38S59,75,38,75S0,59,0,38z"/>
	<path d="M87,38c0-21,17-38,38-38s38,17,38,38s-17,37-38,37S87,59,87,38z"/>
	<path d="M175,38c0-21,17-38,37-38c21,0,38,17,38,38s-17,37-38,37C192,75,175,59,175,38z"/>
</g>
</svg>
