<?xml version="1.0" encoding="UTF-8"?>
<svg width="20px" height="20px" viewBox="0 0 20 20" version="1.1" xmlns="http://www.w3.org/2000/svg" xmlns:xlink="http://www.w3.org/1999/xlink">
    <!-- Generator: Sketch 51.3 (57544) - http://www.bohemiancoding.com/sketch -->
    <title>Shape</title>
    <desc>Created with Sketch.</desc>
    <defs></defs>
    <g id="Symbols" stroke="none" stroke-width="1" fill="none" fill-rule="evenodd">
        <g id="Sidebar" transform="translate(-40.000000, -572.000000)" fill="#000000" fill-rule="nonzero">
            <g id="noun_account_1337577" transform="translate(40.000000, 572.000000)">
                <path d="M14.2285714,9.52285714 C15.1428571,8.51 15.7142857,7.18285714 15.7142857,5.71428571 C15.7142857,2.56285714 13.1514286,0 10,0 C6.84857143,0 4.28571429,2.56285714 4.28571429,5.71428571 C4.28571429,7.18285714 4.85714286,8.51 5.77142857,9.52285714 C2.36714286,11.12 0,14.57 0,18.5714286 L0,20 L20,20 L20,18.5714286 C20,14.57 17.6328571,11.12 14.2285714,9.52285714 Z M7.14285714,5.71428571 C7.14285714,4.13857143 8.42428571,2.85714286 10,2.85714286 C11.5757143,2.85714286 12.8571429,4.13857143 12.8571429,5.71428571 C12.8571429,7.29 11.5757143,8.57142857 10,8.57142857 C8.42428571,8.57142857 7.14285714,7.29 7.14285714,5.71428571 Z M3.00142857,17.1428571 C3.66428571,13.8871429 6.55142857,11.4285714 10,11.4285714 C13.4485714,11.4285714 16.3357143,13.8871429 16.9985714,17.1428571 L3.00142857,17.1428571 Z" id="Shape"></path>
            </g>
        </g>
    </g>
</svg>