<?xml version="1.0" encoding="utf-8"?>
<!-- Generator: Adobe Illustrator 22.1.0, SVG Export Plug-In . SVG Version: 6.00 Build 0)  -->
<svg version="1.1" id="Layer_1" xmlns="http://www.w3.org/2000/svg" xmlns:xlink="http://www.w3.org/1999/xlink" x="0px" y="0px"
	 viewBox="0 0 100 125" style="enable-background:new 0 0 100 125;" xml:space="preserve">
<title>setng cog</title>
<path d="M98.7,38.7c-0.1-0.3-0.3-0.6-0.5-0.9c-1.8-2.3-4.6-3.6-7.5-3.5h-0.5c-1.7,0-3.2-1-4-2.5c-0.1,0-0.1,0-0.1-0.1c0,0,0,0,0,0
	c-0.5-0.9-1-1.7-1.5-2.6c-0.1,0-0.1-0.1-0.1-0.1c-0.9-1.5-0.9-3.3-0.1-4.8c0.1-0.1,0.2-0.2,0.2-0.4c1.5-2.6,1.8-5.7,0.8-8.6
	c-0.1-0.3-0.3-0.7-0.5-0.9c-1.7-1.6-3.5-3.1-5.4-4.5c-0.2-0.1-0.5-0.2-0.9-0.4c-2.9-0.6-6,0.2-8.2,2.2c-0.1,0-0.3,0.1-0.4,0.2
	c-0.8,0.7-1.8,1-2.8,1c-0.6,0-1.2-0.1-1.8-0.4c-1-0.4-1.9-0.7-2.9-1c-1.6-0.6-2.8-2-3.1-3.6c0-0.2-0.1-0.3-0.1-0.5
	c-0.4-3-2.2-5.6-4.9-7c-0.3-0.2-0.6-0.2-0.9-0.2c-2.3-0.1-4.6-0.1-6.9,0c-0.3,0-0.6,0.1-0.9,0.2c-2.7,1.5-4.5,4.1-4.9,7.1
	c-0.1,0.1-0.2,0.2-0.1,0.4c-0.3,1.7-1.4,3.1-3.1,3.6c-0.9,0.2-1.9,0.6-2.9,1c-0.6,0.1-1.2,0.2-1.8,0.2c-1,0-2-0.4-2.8-1
	c-0.1-0.1-0.2-0.1-0.4-0.3c-2.2-2-5.3-2.8-8.2-2.2c-0.3,0-0.7,0.1-0.9,0.4c-1.9,1.3-3.7,2.8-5.4,4.5c-0.2,0.3-0.4,0.6-0.5,0.9
	c-1.1,2.8-0.8,6,0.8,8.6c0.1,0.1,0.2,0.3,0.2,0.4c0.8,1.5,0.7,3.3-0.1,4.8c-0.1,0-0.1,0-0.1,0.1c0,0,0,0,0,0c-0.5,0.8-1,1.7-1.5,2.6
	c-0.1,0-0.1,0-0.1,0.1c0,0,0,0,0,0c-0.8,1.5-2.3,2.5-4,2.5H9.3c-2.9-0.1-5.7,1.2-7.5,3.5c-0.2,0.3-0.4,0.6-0.5,0.9
	c-0.6,2.4-1,4.8-1.3,7.3c0,0.3,0,0.7,0.1,1c0.9,2.8,3.1,4.9,5.9,5.9c0.2,0,0.3,0.1,0.5,0.1c1.6,0.6,2.7,2,2.9,3.6v0.1
	c0.1,1,0.3,2,0.5,3v0.1c0.3,1.7-0.3,3.4-1.5,4.5c-0.1,0-0.3,0.1-0.4,0.2c-2.2,1.8-3.5,4.5-3.6,7.4c0,0.3,0.1,0.7,0.2,1
	c1.1,2.3,2.4,4.5,3.8,6.6C8.7,80,9,80.3,9.3,80.4c2.5,1.4,5.4,1.6,8,0.5c0.2,0,0.4,0,0.5-0.1c0.5-0.2,1-0.3,1.5-0.2
	c0.6,0,1.1,0.1,1.6,0.3c0.6,0.2,1.1,0.5,1.5,0.9l2.3,2l0.1,0.1c1.3,1.1,1.9,2.7,1.7,4.4c-0.1,0.2-0.1,0.3-0.1,0.5
	c-0.6,2.8,0.1,5.7,1.8,7.9c0.2,0.3,0.6,0.5,0.9,0.6c2.3,1.2,4.8,2.1,7.3,2.7c0.4,0.1,0.8,0.1,1.2,0c2.7-0.6,5.1-2.3,6.4-4.8
	c0.1-0.1,0.2-0.3,0.2-0.4c0.8-1.5,2.4-2.5,4.1-2.3h3.2c1.7,0,3.3,0.8,4.1,2.3c0.1,0.1,0.2,0.3,0.2,0.4c1.3,2.5,3.6,4.2,6.4,4.8h0.5
	c0.1,0,0.4,0,0.2-0.3c2.5-0.8,4.9-1.7,7.3-2.7c0.3-0.1,0.7-0.4,0.9-0.6c1.4-1.6,2.1-3.7,2.1-5.8c0-0.6-0.1-1.2-0.2-1.8
	c0-0.3,0-0.5-0.1-0.8c-0.2-1.6,0.5-3.3,1.8-4.3c-0.1-0.1-0.1-0.1,0-0.2s0.1-0.1,0.2,0c0.8-0.6,1.6-1.3,2.3-2h0.1
	c0.8-0.8,1.9-1.2,3.1-1.2c0.4,0,0.7,0,1.1,0.1c0.1,0,0.3,0.1,0.4,0.1c0.2,0,0.3,0.1,0.5,0.1c0.5,0.2,1.1,0.4,1.7,0.5
	c0.6,0.1,1.2,0.2,1.8,0.2c1.6,0,3.2-0.4,4.6-1.2l0.8-0.8c1.5-2.1,2.8-4.3,3.8-6.6c0.2-0.3,0.2-0.7,0.2-1c-0.1-2.9-1.4-5.6-3.6-7.4
	c-0.1-0.1-0.2-0.2-0.4-0.4c-1.2-1-1.8-2.5-1.5-4v-0.1c0.2-1,0.4-2,0.5-3v-0.1c0.5-3,2.7-3.7,2.9-3.7c0.2,0,0.4,0,0.6-0.2
	c2.7-0.9,4.9-3.1,5.8-5.8c0.1-0.3,0.2-0.7,0.1-1C99.8,43.5,99.3,41.1,98.7,38.7z M50,71.1c-11.3,0.1-20.6-9-20.7-20.4
	c-0.1-11.3,9-20.6,20.4-20.7c11.3-0.1,20.6,9,20.7,20.4c0,0,0,0.1,0,0.1c0.1,11.3-8.9,20.5-20.2,20.6C50.1,71.1,50.1,71.1,50,71.1z"
	/>
</svg>
