<?xml version="1.0" encoding="utf-8"?>
<!-- Generator: Adobe Illustrator 22.1.0, SVG Export Plug-In . SVG Version: 6.00 Build 0)  -->
<svg version="1.1" id="Layer_1" xmlns="http://www.w3.org/2000/svg" xmlns:xlink="http://www.w3.org/1999/xlink" x="0px" y="0px"
	 viewBox="0 0 100 125" style="enable-background:new 0 0 100 125;" xml:space="preserve">
<path d="M91.7,57.9c-2,2-4.8,3.3-7.9,3.3H61.2v22.7c0,3.1-1.2,5.9-3.3,7.9c-2,2-4.8,3.3-7.9,3.3c-6.2,0-11.2-5-11.2-11.2l0-22.7
	l-22.7,0C10,61.2,5,56.2,5,50c0-6.2,5-11.2,11.2-11.2l22.7,0l0-22.7C38.8,10,43.8,5,50,5c6.2,0,11.2,5,11.2,11.2l0,22.7l22.7,0
	C90,38.8,95,43.8,95,50C95,53.1,93.7,55.9,91.7,57.9z"/>
</svg>
