<?xml version="1.0" encoding="utf-8"?>
<!-- Generator: Adobe Illustrator 22.1.0, SVG Export Plug-In . SVG Version: 6.00 Build 0)  -->
<svg version="1.1" id="Layer_1" xmlns="http://www.w3.org/2000/svg" xmlns:xlink="http://www.w3.org/1999/xlink" x="0px" y="0px"
	 viewBox="0 0 100 125" style="enable-background:new 0 0 100 125;" xml:space="preserve">
<title>All</title>
<path d="M34.8,0c1.7,0.6,3.4,1.3,4.9,2.2c3.3,2.2,4.7,5.5,4.7,9.3c0.1,7.2,0.1,14.3,0,21.5c0,4.7-2.1,8.3-6.4,10.3
	c-1.6,0.7-3.4,1.1-5.2,1.1c-7.1,0.1-14.1,0.1-21.2,0c-5.9,0-10-3.3-11.4-9.1C0.2,35.1,0.1,35,0,34.8c0-8.4,0-16.7,0-25.1
	C0.1,9.5,0.2,9.2,0.3,9c0.7-2.7,1.9-5.2,4.3-6.7C6.2,1.4,8,0.6,9.7,0H34.8z"/>
<path d="M0,65.1c0.7-1.8,1.5-3.5,2.4-5.1c1.8-2.8,4.9-4.4,8.2-4.3c7.6-0.1,15.2,0,22.8,0c6.1,0,11,4.9,11,11c0,0.1,0,0.2,0,0.3
	c0,7.2,0.1,14.5,0,21.7c-0.1,6.5-4.5,11.1-10.9,11.2c-7.5,0.2-15,0.2-22.5,0c-5.6-0.1-9.4-3.4-10.8-8.8c-0.1-0.2-0.2-0.5-0.3-0.7
	C0,82,0,73.5,0,65.1z"/>
<path d="M90.2,0c2,0.4,3.9,1.3,5.6,2.5c2.4,1.8,3.9,4.6,4,7.7c0.1,6.2,0.1,12.3,0.1,18.5c0,1.6,0,3.1,0,4.7c0,6.1-5,11.1-11.1,11.1
	c-0.1,0-0.2,0-0.3,0c-7.2,0-14.3,0.1-21.5,0c-6.5-0.1-11.2-4.4-11.3-10.8c-0.2-7.6-0.2-15.1,0-22.7c0.1-5.5,3.5-9.3,8.9-10.6
	c0.2-0.1,0.4-0.1,0.6-0.2H90.2z"/>
<path d="M99.9,77.8c0,4,0.1,8,0,11.9c-0.2,5.5-4.6,10-10.2,10.1c-8,0.2-16,0.2-24,0c-5.5-0.2-9.8-4.6-10-10.1c-0.2-8-0.2-16,0-24
	c0.2-5.5,4.5-9.9,10-10.1c8-0.2,16-0.2,24.1,0c5.4,0.3,9.7,4.6,10,10C100,69.7,99.8,73.7,99.9,77.8L99.9,77.8L99.9,77.8z"/>
</svg>
