<?xml version="1.0" encoding="utf-8"?>
<!-- Generator: Adobe Illustrator 22.1.0, SVG Export Plug-In . SVG Version: 6.00 Build 0)  -->
<svg version="1.1" id="Layer_1" xmlns="http://www.w3.org/2000/svg" xmlns:xlink="http://www.w3.org/1999/xlink" x="0px" y="0px"
	 viewBox="0 0 100 125" style="enable-background:new 0 0 100 125;" xml:space="preserve">
<title>Duplicate Solid</title>
<desc>Created with Sketch.</desc>
<g>
	<g>
		<path d="M45.5,14h33H86v7.5v33V62h-8v8h8c4.4,0,8-3.6,8-8v-7.5v-33V14c0-4.4-3.6-8-8-8h-7.5h-33H38c-4.4,0-8,3.6-8,8v8h8v-8H45.5
			L45.5,14L45.5,14z M6,38c0-4.4,3.6-8,8-8h48c4.4,0,8,3.6,8,8v48c0,4.4-3.6,8-8,8H14c-4.4,0-8-3.6-8-8V38L6,38L6,38z"/>
	</g>
</g>
</svg>
