<svg xmlns="http://www.w3.org/2000/svg" viewBox="0 0 15.69 19.35" x="0px" y="0px"><title>Search</title><g data-name="UI Elements"><path d="M15.28,12.71,11.85,9.27a6.21,6.21,0,0,0,.75-3,6.3,6.3,0,1,0-6.3,6.3,6.23,6.23,0,0,0,3.23-.9l3.39,3.39a1.39,1.39,0,0,0,2,0l.4-.4A1.4,1.4,0,0,0,15.28,12.71Zm-9-2.25a4.16,4.16,0,1,1,4.16-4.17A4.16,4.16,0,0,1,6.3,10.46Z"/></g><text x="0" y="30.48" fill="#000000" font-size="5px" font-weight="bold" font-family="'Helvetica Neue', Helvetica, Arial-Unicode, Arial, Sans-serif">Created by Brandy Bora</text><text x="0" y="35.480000000000004" fill="#000000" font-size="5px" font-weight="bold" font-family="'Helvetica Neue', Helvetica, Arial-Unicode, Arial, Sans-serif">from the Noun Project</text></svg>