<?xml version="1.0" encoding="UTF-8"?>
<svg width="20px" height="20px" viewBox="0 0 20 20" version="1.1" xmlns="http://www.w3.org/2000/svg" xmlns:xlink="http://www.w3.org/1999/xlink">
    <!-- Generator: Sketch 51.3 (57544) - http://www.bohemiancoding.com/sketch -->
    <title>noun_1394884_cc</title>
    <desc>Created with Sketch.</desc>
    <defs></defs>
    <g id="Symbols" stroke="none" stroke-width="1" fill="none" fill-rule="evenodd">
        <g id="Sidebar" transform="translate(-40.000000, -371.000000)" fill="#000000" fill-rule="nonzero">
            <g id="noun_1394884_cc" transform="translate(40.000000, 371.000000)">
                <g id="Group">
                    <g id="Shape">
                        <path d="M6.05000906,13 L3,13 L3,17 C3,17.5522847 3.44771525,18 4,18 L16,18 C16.5522847,18 17,17.5522847 17,17 L17,13 L13.9499909,13 C13.7183558,14.1411202 12.709479,15 11.5,15 L8.5,15 C7.29052104,15 6.28164422,14.1411202 6.05000906,13 Z M13.9499909,11 L17,11 C17.5522847,11 18,10.5522847 18,10 L18,7 C18,6.44771525 17.5522847,6 17,6 L3,6 C2.44771525,6 2,6.44771525 2,7 L2,10 C2,10.5522847 2.44771525,11 3,11 L6.05000906,11 C6.28164422,9.8588798 7.29052104,9 8.5,9 L11.5,9 C12.709479,9 13.7183558,9.8588798 13.9499909,11 Z M5,4 L5,3 C5,1.34314575 6.34314575,0 8,0 L12,0 C13.6568542,0 15,1.34314575 15,3 L15,4 L17,4 C18.6568542,4 20,5.34314575 20,7 L20,10 C20,10.8884998 19.6137494,11.686786 19,12.2361065 L19,17 C19,18.6568542 17.6568542,20 16,20 L4,20 C2.34314575,20 1,18.6568542 1,17 L1,12.2361065 C0.38625064,11.686786 0,10.8884998 0,10 L0,7 C0,5.34314575 1.34314575,4 3,4 L5,4 Z M13,4 L13,3 C13,2.44771525 12.5522847,2 12,2 L8,2 C7.44771525,2 7,2.44771525 7,3 L7,4 L13,4 Z M8.5,11 C8.2238576,11 8,11.2238576 8,11.5 L8,12.5 C8,12.7761424 8.2238576,13 8.5,13 L11.5,13 C11.7761424,13 12,12.7761424 12,12.5 L12,11.5 C12,11.2238576 11.7761424,11 11.5,11 L8.5,11 Z"></path>
                    </g>
                </g>
            </g>
        </g>
    </g>
</svg>